<?xml version="1.0" encoding="UTF-8" standalone="no"?>
<svg
   xmlns:dc="http://purl.org/dc/elements/1.1/"
   xmlns:cc="http://creativecommons.org/ns#"
   xmlns:rdf="http://www.w3.org/1999/02/22-rdf-syntax-ns#"
   xmlns:svg="http://www.w3.org/2000/svg"
   xmlns="http://www.w3.org/2000/svg"
   id="svg12131"
   version="1.1"
   viewBox="0 0 55.000011 55"
   height="55mm"
   width="55.000011mm">
  <defs
     id="defs12125" />
  <metadata
     id="metadata12128">
    <rdf:RDF>
      <cc:Work
         rdf:about="">
        <dc:format>image/svg+xml</dc:format>
        <dc:type
           rdf:resource="http://purl.org/dc/dcmitype/StillImage" />
        <dc:title></dc:title>
      </cc:Work>
    </rdf:RDF>
  </metadata>
  <g
     transform="translate(-583.34169,398.25761)"
     id="layer1">
    <g
       transform="translate(262.6794,-380.6337)"
       id="g13459">
      <g
         id="g13453">
        <path
           id="circle5535"
           d="m 351.89022,31.60401 c -3.25736,3.25736 -7.75736,5.27208 -12.72792,5.27208 -9.94113,0 -18,-8.05887 -18,-18 0,-4.97056 2.01472,-9.47056 5.27208,-12.72792 l 18,-18 c 3.25736,-3.25736 7.75736,-5.27208 12.72792,-5.27208 9.94113,0 18,8.05887 18,18 0,4.97056 -2.01472,9.47056 -5.27208,12.72792 z"
           style="fill:#1154ff;fill-opacity:1;stroke:#000000;stroke-width:1;stroke-miterlimit:4;stroke-dasharray:none;stroke-opacity:1" />
        <path
           id="circle5341"
           d="m 357.16229,18.876089 a 18,18 0 0 1 -18,18 18,18 0 0 1 -18,-18 18,18 0 0 1 18,-17.9999999 18,18 0 0 1 18,17.9999999 z"
           style="fill:#0032b0;fill-opacity:1;stroke:#000000;stroke-width:1;stroke-miterlimit:4;stroke-dasharray:none;stroke-opacity:1" />
      </g>
    </g>
  </g>
</svg>
