<?xml version="1.0" encoding="UTF-8" standalone="no"?>
<svg
   xmlns:dc="http://purl.org/dc/elements/1.1/"
   xmlns:cc="http://creativecommons.org/ns#"
   xmlns:rdf="http://www.w3.org/1999/02/22-rdf-syntax-ns#"
   xmlns:svg="http://www.w3.org/2000/svg"
   xmlns="http://www.w3.org/2000/svg"
   id="svg12131"
   version="1.1"
   viewBox="0 0 55.000004 55.000172"
   height="55.000172mm"
   width="55.000004mm">
  <defs
     id="defs12125" />
  <metadata
     id="metadata12128">
    <rdf:RDF>
      <cc:Work
         rdf:about="">
        <dc:format>image/svg+xml</dc:format>
        <dc:type
           rdf:resource="http://purl.org/dc/dcmitype/StillImage" />
        <dc:title></dc:title>
      </cc:Work>
    </rdf:RDF>
  </metadata>
  <g
     transform="translate(-324.32735,215.09842)"
     id="layer1">
    <g
       transform="translate(262.6794,-380.6337)"
       id="g13337">
      <g
         id="g13331">
        <path
           id="path5417"
           d="m 98.148013,166.03565 c -7.455839,0 -7.45576,-1.2e-4 -30.727839,23.27196 -3.25736,3.25736 -5.272029,7.75735 -5.272029,12.72791 0,5.88985 2.828995,11.11837 7.202144,14.40222 1.100019,2.18421 4.911669,3.59771 10.797791,3.59771 9.941119,0 22.02934,-4.02941 26.9999,-8.99997 1.44462,-1.44462 2.12906,-2.80957 2.12907,-4.01939 0,-40.98044 -1e-5,-40.98044 -11.129037,-40.98044 z"
           style="fill:#1154ff;fill-opacity:1;stroke:#000000;stroke-width:1;stroke-miterlimit:4;stroke-dasharray:none;stroke-opacity:1" />
        <path
           id="circle5419"
           d="m 62.147947,202.0353 a 18,18 0 0 1 18,-18 18,18 0 0 1 18,18 18,18 0 0 1 -18,18 18,18 0 0 1 -18,-18 z"
           style="fill:#0032b0;fill-opacity:1;stroke:#000000;stroke-width:1;stroke-miterlimit:4;stroke-dasharray:none;stroke-opacity:1" />
      </g>
    </g>
  </g>
</svg>
