<?xml version="1.0" encoding="UTF-8" standalone="no"?>
<svg
   xmlns:dc="http://purl.org/dc/elements/1.1/"
   xmlns:cc="http://creativecommons.org/ns#"
   xmlns:rdf="http://www.w3.org/1999/02/22-rdf-syntax-ns#"
   xmlns:svg="http://www.w3.org/2000/svg"
   xmlns="http://www.w3.org/2000/svg"
   id="svg12131"
   version="1.1"
   viewBox="0 0 55.000011 55"
   height="55mm"
   width="55.000011mm">
  <defs
     id="defs12125" />
  <metadata
     id="metadata12128">
    <rdf:RDF>
      <cc:Work
         rdf:about="">
        <dc:format>image/svg+xml</dc:format>
        <dc:type
           rdf:resource="http://purl.org/dc/dcmitype/StillImage" />
        <dc:title></dc:title>
      </cc:Work>
    </rdf:RDF>
  </metadata>
  <g
     transform="translate(-201.53778,408.85274)"
     id="layer1">
    <g
       transform="translate(262.49231,-380.6337)"
       id="g13232">
      <g
         id="g13226">
        <path
           id="ellipse5087"
           d="m -55.47409,19.41 c -2.95283,0 -4.98044,-4.07713 -4.98044,-11.12902 0,-9.94113 4.02944,-22.02944 9.00001,-27.00001 1.44461,-1.44462 2.80973,-2.12902 4.01955,-2.12902 l 36.00001,-10e-6 c 2.95283,0 4.98044,4.07713 4.98044,11.12902 0,9.94113 -4.02944,22.02944 -9,27.00001 -1.44462,1.44462 -2.80974,2.12902 -4.01956,2.12903 z"
           style="fill:#1154ff;fill-opacity:1;stroke:#000000;stroke-width:1;stroke-miterlimit:4;stroke-dasharray:none;stroke-opacity:1" />
        <path
           id="ellipse5095"
           d="m -6.45452,-9.71904 a 7.8662884,20.59421 13.282525 0 1 -9,27.00001 7.8662884,20.59421 13.282525 0 1 -9,-9 7.8662884,20.59421 13.282525 0 1 9,-27 7.8662884,20.59421 13.282525 0 1 9,8.99999 z"
           style="fill:#0032b0;fill-opacity:1;stroke:#000000;stroke-width:1;stroke-miterlimit:4;stroke-dasharray:none;stroke-opacity:1" />
      </g>
    </g>
  </g>
</svg>
