<?xml version="1.0" encoding="UTF-8" standalone="no"?>
<svg
   xmlns:dc="http://purl.org/dc/elements/1.1/"
   xmlns:cc="http://creativecommons.org/ns#"
   xmlns:rdf="http://www.w3.org/1999/02/22-rdf-syntax-ns#"
   xmlns:svg="http://www.w3.org/2000/svg"
   xmlns="http://www.w3.org/2000/svg"
   id="svg12131"
   version="1.1"
   viewBox="0 0 55 55.000011"
   height="55.000011mm"
   width="55mm">
  <defs
     id="defs12125" />
  <metadata
     id="metadata12128">
    <rdf:RDF>
      <cc:Work
         rdf:about="">
        <dc:format>image/svg+xml</dc:format>
        <dc:type
           rdf:resource="http://purl.org/dc/dcmitype/StillImage" />
        <dc:title></dc:title>
      </cc:Work>
    </rdf:RDF>
  </metadata>
  <g
     transform="translate(-416.19269,342.61233)"
     id="layer1">
    <g
       transform="translate(262.6794,-380.6337)"
       id="g13383">
      <g
         id="g13376">
        <path
           id="path5295"
           d="m 201.14236,43.50202 c 1e-5,27.34652 -3e-5,27.34617 -16.40106,43.7472 -3.25736,3.25735 -7.75735,5.27203 -12.72791,5.27203 -9.94112,0 -17.99993,-8.0588 -17.99993,-17.99994 0,-4.97056 2.01467,-9.47055 5.27203,-12.7279 l 1.59887,-1.59887 V 51.5408 c 0,-1.20981 0.68445,-2.57477 2.12907,-4.01939 4.97056,-4.97056 17.05878,-8.99997 26.9999,-8.99997 7.05189,0 11.12903,2.02774 11.12903,4.98058 z"
           style="fill:#1154ff;fill-opacity:1;stroke:#000000;stroke-width:1;stroke-miterlimit:4;stroke-dasharray:none;stroke-opacity:1" />
        <path
           id="path5297"
           d="m 172.01329,56.52138 c -9.94113,0 -18,8.05887 -18,18 0,9.94113 8.05887,18 18,18 4.97056,0 9.47064,-2.01465 12.728,-5.27201 3.25736,-3.25736 5.272,-7.75743 5.272,-12.72799 0,-9.94113 -8.05887,-18 -18,-18 z"
           style="fill:#0032b0;fill-opacity:1;stroke:#000000;stroke-width:1;stroke-miterlimit:4;stroke-dasharray:none;stroke-opacity:1" />
        <path
           id="path5299"
           d="m 190.01329,38.52137 c -9.94112,0 -22.02943,4.02943 -26.99999,9 -4.97057,4.97056 -0.94112,9 8.99999,9 9.94112,0 22.02944,-4.02944 27,-9 1.44462,-1.44462 2.12902,-2.80974 2.12903,-4.01956 -1e-5,-2.95283 -4.07714,-4.98044 -11.12903,-4.98044 z"
           style="fill:#0032b0;fill-opacity:1;stroke:#000000;stroke-width:1;stroke-miterlimit:4;stroke-dasharray:none;stroke-opacity:1" />
      </g>
    </g>
  </g>
</svg>
