<?xml version="1.0" encoding="UTF-8" standalone="no"?>
<svg
   xmlns:dc="http://purl.org/dc/elements/1.1/"
   xmlns:cc="http://creativecommons.org/ns#"
   xmlns:rdf="http://www.w3.org/1999/02/22-rdf-syntax-ns#"
   xmlns:svg="http://www.w3.org/2000/svg"
   xmlns="http://www.w3.org/2000/svg"
   id="svg12131"
   version="1.1"
   viewBox="0 0 55.000393 55"
   height="55mm"
   width="55.000393mm">
  <defs
     id="defs12125" />
  <metadata
     id="metadata12128">
    <rdf:RDF>
      <cc:Work
         rdf:about="">
        <dc:format>image/svg+xml</dc:format>
        <dc:type
           rdf:resource="http://purl.org/dc/dcmitype/StillImage" />
        <dc:title></dc:title>
      </cc:Work>
    </rdf:RDF>
  </metadata>
  <g
     transform="translate(-336.49808,408.5087)"
     id="layer1">
    <g
       transform="translate(262.6794,-380.6337)"
       id="g13314">
      <g
         id="g13308">
        <path
           id="path5183"
           d="m 110.31913,-27.37477 c -4.97056,0 -9.47054,2.01467 -12.727899,5.27203 C 74.319151,1.16934 74.31875,1.16926 74.31875,8.6251 c 0,11.12903 4e-6,11.12903 40.98044,11.12903 1.20982,-10e-6 2.57529,-0.68445 4.01991,-2.12907 4.97056,-4.97056 8.99997,-17.05878 8.99997,-26.9999 0,-5.88612 -1.4135,-9.69777 -3.59771,-10.79779 -3.28385,-4.37315 -8.51238,-7.20214 -14.40223,-7.20214 z"
           style="fill:#ff1111;fill-opacity:1;stroke:#000000;stroke-width:1;stroke-miterlimit:4;stroke-dasharray:none;stroke-opacity:1" />
        <path
           style="fill:#7b0000;fill-opacity:1;stroke:#000000;stroke-width:1;stroke-miterlimit:4;stroke-dasharray:none;stroke-opacity:1"
           d="m 128.31876,-9.375 c 0,9.94112 -4.02943,22.02943 -9,26.99999 -4.97056,4.97057 -9,0.94112 -9,-8.99999 0,-9.94112 4.02944,-22.02944 9,-27 1.44462,-1.44462 2.80974,-2.12902 4.01956,-2.12903 2.95283,10e-6 4.98044,4.07714 4.98044,11.12903 z"
           id="path13089" />
      </g>
    </g>
  </g>
</svg>

