<?xml version="1.0" encoding="UTF-8" standalone="no"?>
<svg
   xmlns:dc="http://purl.org/dc/elements/1.1/"
   xmlns:cc="http://creativecommons.org/ns#"
   xmlns:rdf="http://www.w3.org/1999/02/22-rdf-syntax-ns#"
   xmlns:svg="http://www.w3.org/2000/svg"
   xmlns="http://www.w3.org/2000/svg"
   id="svg12131"
   version="1.1"
   viewBox="0 0 55 55.000011"
   height="55.000011mm"
   width="55mm">
  <defs
     id="defs12125" />
  <metadata
     id="metadata12128">
    <rdf:RDF>
      <cc:Work
         rdf:about="">
        <dc:format>image/svg+xml</dc:format>
        <dc:type
           rdf:resource="http://purl.org/dc/dcmitype/StillImage" />
        <dc:title></dc:title>
      </cc:Work>
    </rdf:RDF>
  </metadata>
  <g
     transform="translate(-502.03275,403.37203)"
     id="layer1">
    <g
       transform="translate(262.6794,-380.6337)"
       id="g13425">
      <g
         id="g13419">
        <path
           id="ellipse5457"
           d="m 275.85322,-22.238092 c -9.94112,0 -22.02934,4.029407 -26.9999,8.999967 -4.97057,4.9705701 -8.99997,17.0587723 -8.99997,26.999901 0,7.051892 2.02774,11.129028 4.98057,11.129036 42.14857,0 42.14832,-2.64e-4 42.14833,-42.148846 0,-2.95284 -4.07714,-4.980058 -11.12903,-4.980058 z"
           style="fill:#ff1111;fill-opacity:1;stroke:#000000;stroke-width:0.99999994;stroke-miterlimit:4;stroke-dasharray:none;stroke-opacity:1" />
        <path
           style="fill:#7b0000;fill-opacity:1;stroke:#000000;stroke-width:1;stroke-miterlimit:4;stroke-dasharray:none;stroke-opacity:1"
           d="m 275.85312,-22.23833 c -9.94112,0 -22.02943,4.02943 -26.99999,9 -4.97057,4.97056 -0.94112,9 8.99999,9 9.94112,0 22.02944,-4.02944 27,-9 1.44462,-1.44462 2.12902,-2.80974 2.12903,-4.01956 -10e-6,-2.95283 -4.07714,-4.98044 -11.12903,-4.98044 z"
           id="path13030" />
      </g>
    </g>
  </g>
</svg>

