<?xml version="1.0" encoding="UTF-8" standalone="no"?>
<svg
   xmlns:dc="http://purl.org/dc/elements/1.1/"
   xmlns:cc="http://creativecommons.org/ns#"
   xmlns:rdf="http://www.w3.org/1999/02/22-rdf-syntax-ns#"
   xmlns:svg="http://www.w3.org/2000/svg"
   xmlns="http://www.w3.org/2000/svg"
   id="svg12131"
   version="1.1"
   viewBox="0 0 55.000011 55.000011"
   height="55.000011mm"
   width="55.000011mm">
  <defs
     id="defs12125" />
  <metadata
     id="metadata12128">
    <rdf:RDF>
      <cc:Work
         rdf:about="">
        <dc:format>image/svg+xml</dc:format>
        <dc:type
           rdf:resource="http://purl.org/dc/dcmitype/StillImage" />
        <dc:title></dc:title>
      </cc:Work>
    </rdf:RDF>
  </metadata>
  <g
     transform="translate(-268.66624,408.0414)"
     id="layer1">
    <g
       transform="translate(262.6794,-380.6337)"
       id="g13287">
      <g
         id="g13280">
        <path
           id="path5349"
           d="m 55.5064,-20.03673 c 2.93962,0.27907 4.98044,4.07713 4.98044,11.12902 0,9.94112 -4.02943,22.02944 -8.99999,27 -1.44462,1.44462 -2.80974,2.12902 -4.01956,2.12903 -34.10949,2e-5 -34.10949,2e-5 -34.10949,-34.10945 0,-1.20981 0.68441,-2.57494 2.12903,-4.01956 4.97057,-4.97056 17.05888,-9 27,-9 7.05189,0 11.12902,2.02761 11.12903,4.98044 v 1.89053 z"
           style="fill:#ff1111;fill-opacity:1;stroke:#000000;stroke-width:1;stroke-miterlimit:4;stroke-dasharray:none;stroke-opacity:1" />
        <path
           style="fill:#7b0000;fill-opacity:1;stroke:#000000;stroke-width:1;stroke-miterlimit:4;stroke-dasharray:none;stroke-opacity:1"
           d="m 60.48685,-8.90769 c 0,9.94112 -4.02943,22.02943 -9,26.99999 -4.97056,4.97057 -9,0.94112 -9,-8.99999 0,-9.94112 4.02944,-22.02944 9,-27 1.44462,-1.44462 2.80974,-2.12902 4.01956,-2.12903 2.95283,10e-6 4.98044,4.07714 4.98044,11.12903 z"
           id="path13039" />
        <path
           id="path13045"
           d="m 42.48684,-26.9077 c -9.94112,0 -22.02943,4.02943 -26.99999,9 -4.97057,4.97056 -0.94112,9 8.99999,9 9.94112,0 22.02944,-4.02944 27,-9 1.44462,-1.44462 2.12902,-2.80974 2.12903,-4.01956 -1e-5,-2.95283 -4.07714,-4.98044 -11.12903,-4.98044 z"
           style="fill:#7b0000;fill-opacity:1;stroke:#000000;stroke-width:1;stroke-miterlimit:4;stroke-dasharray:none;stroke-opacity:1" />
      </g>
    </g>
  </g>
</svg>

