<?xml version="1.0" encoding="UTF-8" standalone="no"?>
<svg
   xmlns:dc="http://purl.org/dc/elements/1.1/"
   xmlns:cc="http://creativecommons.org/ns#"
   xmlns:rdf="http://www.w3.org/1999/02/22-rdf-syntax-ns#"
   xmlns:svg="http://www.w3.org/2000/svg"
   xmlns="http://www.w3.org/2000/svg"
   id="svg12131"
   version="1.1"
   viewBox="0 0 55 55"
   height="55mm"
   width="55mm">
  <defs
     id="defs12125" />
  <metadata
     id="metadata12128">
    <rdf:RDF>
      <cc:Work
         rdf:about="">
        <dc:format>image/svg+xml</dc:format>
        <dc:type
           rdf:resource="http://purl.org/dc/dcmitype/StillImage" />
        <dc:title></dc:title>
      </cc:Work>
    </rdf:RDF>
  </metadata>
  <g
     transform="translate(-422.98107,408.36119)"
     id="layer1">
    <g
       transform="translate(262.6794,-380.6337)"
       id="g13403">
      <g
         id="g13396">
        <path
           style="fill:#fcff11;fill-opacity:1;stroke:#000000;stroke-width:1;stroke-miterlimit:4;stroke-dasharray:none;stroke-opacity:1"
           d="m 209.82103,-20.35656 c -27.34652,-10e-6 -27.34618,3e-5 -43.74721,16.40106 -3.25734,3.25736 -5.27202,7.75735 -5.27202,12.72791 0,9.94112 8.0588,17.99993 17.99993,17.99993 4.97056,0 9.47055,-2.01467 12.7279,-5.27203 l 1.59888,-1.59887 h 8.65373 c 1.20981,0 2.57477,-0.68445 4.01939,-2.12907 4.97056,-4.97056 8.99997,-17.05878 8.99997,-26.9999 0,-7.05189 -2.02774,-11.12903 -4.98057,-11.12903 z"
           id="path5103" />
        <path
           style="fill:#84851d;fill-opacity:1;stroke:#000000;stroke-width:1;stroke-miterlimit:4;stroke-dasharray:none;stroke-opacity:1"
           d="m 196.80167,8.77251 c 0,9.94113 -8.05888,18 -18,18 -9.94114,0 -18,-8.05887 -18,-18 0,-4.97056 2.01464,-9.47064 5.272,-12.728 3.25736,-3.25736 7.75743,-5.272 12.728,-5.272 9.94112,0 18,8.05887 18,18 z"
           id="path5105" />
        <path
           style="fill:#84851d;fill-opacity:1;stroke:#000000;stroke-width:1;stroke-miterlimit:4;stroke-dasharray:none;stroke-opacity:1"
           d="m 214.80167,-9.22749 c 0,9.94112 -4.02943,22.02943 -9,26.99999 -4.97056,4.97057 -9,0.94112 -9,-8.99999 0,-9.94112 4.02944,-22.02944 9,-27 1.44462,-1.44462 2.80975,-2.12902 4.01956,-2.12903 2.95283,10e-6 4.98044,4.07714 4.98044,11.12903 z"
           id="path5107" />
      </g>
    </g>
  </g>
</svg>

